<?xml version="1.0" encoding="UTF-8" standalone="no"?>
<!-- Created with Inkscape (http://www.inkscape.org/) -->

<svg
   xmlns:dc="http://purl.org/dc/elements/1.1/"
   xmlns:cc="http://creativecommons.org/ns#"
   xmlns:rdf="http://www.w3.org/1999/02/22-rdf-syntax-ns#"
   xmlns:svg="http://www.w3.org/2000/svg"
   xmlns="http://www.w3.org/2000/svg"
   xmlns:sodipodi="http://sodipodi.sourceforge.net/DTD/sodipodi-0.dtd"
   xmlns:inkscape="http://www.inkscape.org/namespaces/inkscape"
   width="1000"
   height="1273.438"
   id="svg2"
   version="1.1"
   inkscape:version="0.92.2 (5c3e80d, 2017-08-06)"
   sodipodi:docname="Philips crest 2013.svg">
  <defs
     id="defs4" />
  <sodipodi:namedview
     id="base"
     pagecolor="#ffffff"
     bordercolor="#666666"
     borderopacity="1.0"
     inkscape:pageopacity="0.0"
     inkscape:pageshadow="2"
     inkscape:zoom="0.35"
     inkscape:cx="267.48225"
     inkscape:cy="665.23443"
     inkscape:document-units="px"
     inkscape:current-layer="layer1"
     showgrid="false"
     fit-margin-left="0.5"
     fit-margin-top="0.5"
     fit-margin-bottom="0.5"
     fit-margin-right="0.5"
     inkscape:window-width="1366"
     inkscape:window-height="705"
     inkscape:window-x="-8"
     inkscape:window-y="-8"
     inkscape:window-maximized="1">
    <inkscape:grid
       type="xygrid"
       id="grid2996"
       empspacing="5"
       visible="true"
       enabled="true"
       snapvisiblegridlinesonly="true" />
  </sodipodi:namedview>
  <metadata
     id="metadata7">
    <rdf:RDF>
      <cc:Work
         rdf:about="">
        <dc:format>image/svg+xml</dc:format>
        <dc:type
           rdf:resource="http://purl.org/dc/dcmitype/StillImage" />
        <dc:title></dc:title>
      </cc:Work>
    </rdf:RDF>
  </metadata>
  <g
     inkscape:label="Layer 1"
     inkscape:groupmode="layer"
     id="layer1"
     transform="translate(-1800.0714,281.57582)">
    <path
       sodipodi:nodetypes="ccccccc"
       inkscape:connector-curvature="0"
       id="path3084"
       d="m 1800.0714,-254.23205 c 0,0 205.4603,-27.34377 502.6042,-27.34377 298.9763,0 497.3958,27.34377 497.3958,27.34377 v 739.58361 c 0,290.65204 -225.7944,506.51062 -500,506.51062 -276.494,0 -500,-218.77495 -500,-500.0002 z"
       style="fill:#0b5ed8;fill-opacity:1;stroke:none;stroke-width:1.001001" />
    <path
       style="fill:#ffffff;fill-opacity:1;fill-rule:nonzero;stroke:none;stroke-width:2.16384673"
       id="path3082"
       d="m 2167.0802,-160.09706 h -46.4708 v 60.524971 h -48.3814 v -60.524971 h -46.4773 V -7.8292992 h 46.4773 V -67.720259 h 48.3814 v 59.8909598 h 46.4708 z m 161.6912,121.679618 V -160.09706 h -46.4729 V -7.8292992 h 84.0373 l 6.9957,-30.5881428 z M 2247.9258,-160.09706 H 2201.455 V -7.8271354 h 46.4708 z m 188.4321,0 h -46.4665 V -7.8271354 h 46.4665 z m 229.1578,38.86053 c 0,-8.27887 8.2875,-12.10672 21.6406,-12.10672 14.6449,0 30.573,3.18735 41.3857,7.66435 l -3.8127,-33.13932 c -12.1067,-2.54901 -22.9281,-4.45969 -42.6559,-4.45969 -37.5644,0 -63.0177,14.81802 -63.0177,45.87572 0,53.501121 72.5819,42.679722 72.5819,67.525014 0,9.549057 -7.0152,14.638426 -24.2134,14.638426 -15.253,0 -38.8259,-5.089369 -52.8282,-12.09807 l 5.1089,35.049996 c 13.9914,5.0980235 33.0895,7.63838 48.3749,7.63838 38.8216,0 70.6583,-12.745059 70.6583,-50.973746 0,-50.94994 -73.2224,-41.403051 -73.2224,-65.61434 m -131.1075,77.089221 c 43.2553,0 70.6388,-22.302772 70.6388,-61.154651 0,-42.68837 -29.2769,-57.97595 -77.0221,-57.97595 -18.462,0 -40.7539,1.27018 -56.6647,3.18085 V -7.8292992 h 46.4903 V -44.147309 Z m 24.8042,-60.524971 c 0,19.753764 -9.5404,33.132831 -33.7387,33.132831 h -5.6469 V -134.4533 c 2.6962,-0.15147 3.2602,-0.15147 5.6469,-0.15147 22.9108,0 33.7387,10.82572 33.7387,29.93249 m -622.5775,60.524971 c 43.2899,0 70.6604,-22.302772 70.6604,-61.154651 0,-42.68837 -29.2833,-57.97595 -77.0243,-57.97595 -18.4641,0 -40.7474,1.27018 -56.6581,3.18085 V -7.8292992 h 46.4642 V -44.147309 Z m 24.8344,-60.524971 c 0,19.753764 -9.5533,33.132831 -33.7451,33.132831 h -5.5544 V -134.4533 c 2.7178,-0.15147 3.1633,-0.15147 5.5544,-0.15147 22.9064,0 33.7451,10.82572 33.7451,29.93249"
       inkscape:connector-curvature="0"
       sodipodi:nodetypes="cccccccccccccccccccccccccccccccsccssssccsscsssccccscsccscsssccccscsccsc" />
    <path
       sodipodi:nodetypes="ccccccccc"
       inkscape:connector-curvature="0"
       id="path3086"
       d="m 1869.4307,545.45668 c -1.3408,-12.16047 -2.7308,-37.13664 -3.0227,-53.47843 37.3504,19.38124 93.3698,42.31772 176.3625,42.31772 201.2155,0 292.0952,-150.78596 490.1412,-150.78596 81.4304,0 150.3653,23.43145 196.9402,52.31587 2.0205,18.0199 2.6174,36.03982 3.3715,54.05972 -53.1132,-26.08176 -108.1775,-41.62017 -176.2463,-41.62017 -203.5436,0 -286.5477,149.73964 -490.6064,149.73964 -78.8722,0 -144.4622,-20.21537 -196.94,-52.54839 z"
       style="fill:#ffffff;stroke:none;stroke-width:1.001001" />
    <path
       sodipodi:nodetypes="cccccccc"
       inkscape:connector-curvature="0"
       id="path3088"
       d="m 1870.3298,437.47751 c 6.8779,-59.90558 23.7412,-104.6385 50.7191,-155.34404 l 89.9833,11.50951 c 17.0388,2.21922 29.37,5.80169 37.6418,14.88903 7.9427,8.92295 11.418,14.24 16.21,47.76148 l 13.3732,105.02099 c 0,0 -27.3505,4.75385 -61.4122,5.08711 -59.0135,0 -112.4769,-15.15814 -146.5152,-28.92408 z"
       style="fill:#ffffff;stroke:none;stroke-width:1.001001" />
    <path
       sodipodi:nodetypes="cccccc"
       inkscape:connector-curvature="0"
       id="path3090"
       d="m 1930.0938,266.5703 c 31.7466,-52.46598 78.9723,-104.51496 143.8612,-143.7791 l -10.7233,81.101 c -2.4071,17.46726 -4.2637,25.92877 -13.5457,36.79721 -7.8613,8.71188 -20.9579,12.10801 -36.3059,14.90089 z"
       style="fill:#ffffff;stroke:none;stroke-width:1.001001" />
    <path
       sodipodi:nodetypes="cccccc"
       inkscape:connector-curvature="0"
       id="path3092"
       d="m 2095.2025,164.94593 -6.1615,-51.38579 c 26.7252,-15.104169 60.2287,-30.107886 98.7024,-39.760076 l -7.5567,57.547456 c -3.2491,18.14109 -11.0178,23.81689 -30.3431,26.73922 z"
       style="fill:#ffffff;stroke:none;stroke-width:1.001001" />
    <path
       sodipodi:nodetypes="ccccccc"
       inkscape:connector-curvature="0"
       id="path3094"
       d="m 2187.3999,260.73363 -47.8441,-6.98755 c -22.5949,-4.71721 -35.2931,-20.49525 -38.5772,-48.85784 l -4.7173,-34.12836 56.7763,8.01391 c 18.7273,2.08106 25.3741,11.23478 27.8679,31.23846 z"
       style="fill:#ffffff;stroke:none;stroke-width:1.001001" />
    <path
       sodipodi:nodetypes="ccccccccccccccccc"
       inkscape:connector-curvature="0"
       id="path3096"
       d="m 2086.6147,459.59105 11.4943,-97.93746 c 6.9735,-48.72715 13.3245,-61.26333 54.4084,-67.7781 l 116.1413,-15.34598 v -7.78926 l -74.521,-9.06809 7.3242,-56.73365 c 1.8762,-16.53462 9.5817,-24.05631 30.3431,-26.62297 l 60.4539,-8.13801 v -4.41779 l -64.4066,-8.37054 c -18.5326,-3.03555 -24.4232,-10.81323 -26.6229,-27.78555 l -7.5568,-57.198677 c 0,0 44.5785,-13.485865 106.2594,-13.485865 239.6304,0 382.0095,181.142782 416.7827,313.662702 -36.4659,-23.634 -110.7743,-57.77998 -200.0789,-57.77998 -180.7263,0 -272.4397,115.08628 -430.0211,144.78922 z"
       style="fill:#ffffff;stroke:none;stroke-width:1.001001" />
    <path
       sodipodi:nodetypes="cccccccccccc"
       inkscape:connector-curvature="0"
       id="path3100"
       d="m 2299.8156,925.44427 c -183.2147,0 -357.048,-114.28837 -417.2478,-315.81345 53.0054,33.47346 129.1482,58.01248 202.6365,58.01248 191.361,0 284.0458,-121.68576 427.3221,-147.13728 l -15.1261,118.54173 c -5.2995,30.59824 -13.7012,43.87551 -50.4747,49.98153 l -117.5552,14.96157 v 8.05624 l 110.321,13.97509 c 36.593,3.94275 53.6292,16.05853 57.5446,52.11891 l 12.3308,92.89328 c -36.1604,21.65289 -113.2152,54.4099 -209.7512,54.4099 z"
       style="fill:#ffffff;stroke:none;stroke-width:1.001001" />
    <path
       sodipodi:nodetypes="ccccc"
       inkscape:connector-curvature="0"
       id="path3102"
       d="m 2524.0352,863.47138 9.2072,-74.15023 c 6.0636,-41.84969 12.7832,-56.97378 53.4341,-62.14808 l 84.3039,-10.87947 c -42.6805,69.00833 -90.1959,110.5436 -146.9452,147.17778 z"
       style="fill:#ffffff;stroke:none;stroke-width:1.001001" />
    <path
       sodipodi:nodetypes="ccccccc"
       inkscape:connector-curvature="0"
       id="path3104"
       d="m 2679.5697,701.52466 -85.1658,-11.18009 c -43.8407,-5.12832 -54.7635,-15.89957 -60.3395,-58.531 L 2519.596,519.35514 c 0,0 29.1408,-4.93238 62.3125,-4.93238 49.5074,0 116.9521,15.90916 148.3004,29.75873 -7.3176,52.44772 -17.0993,95.03067 -50.6392,157.34317 z"
       style="fill:#ffffff;stroke:none;stroke-width:1.001001" />
    <path
       sodipodi:nodetypes="ccccccccccccccccc"
       inkscape:connector-curvature="0"
       id="path3098"
       d="m 2406.5291,895.36748 h 3.548 l 6.3358,-47.83247 c 2.9962,-19.51136 10.4953,-21.01051 24.265,-23.52274 l 46.6932,-5.91886 v -3.61709 l -50.2387,-6.46024 c -13.2888,-2.06048 -18.4173,-9.04611 -20.4788,-20.62315 l -6.3721,-50.02627 H 2406.5 l -6.5484,50.92812 c -2.6422,12.30043 -7.4512,17.22879 -20.7642,19.44062 l -49.9815,6.74092 v 3.61709 l 48.0932,6.15964 c 15.8762,2.03478 21.7059,9.39554 23.3584,24.47417 z"
       style="fill:#0b5ed8;fill-opacity:1;stroke:none;stroke-width:1.001001" />
  </g>
</svg>
